<svg width="10rem" height="auto" xmlns="http://www.w3.org/2000/svg" viewBox="0 0 497.15 66.44">
    <defs>
        <style>.cls-1{fill:#231f20;}</style>
    </defs>
    <g id="Layer_2" data-name="Layer 2">
        <g id="Layer_1-2" data-name="Layer 1">
            <path class="cls-1"
                d="M35.73,5.33a15.55,15.55,0,0,1,5.35,11.83H27.56a7.4,7.4,0,0,0-2-5.26,6.46,6.46,0,0,0-4.88-2.15,6.09,6.09,0,0,0-4.22,1.58,5.07,5.07,0,0,0-1.76,3.94A7,7,0,0,0,17,20.39a16.83,16.83,0,0,0,6.69,3.68Q32.5,27,37.44,31.88a16.17,16.17,0,0,1,4.94,11.89A15,15,0,0,1,37,55.4q-5.4,4.8-15.41,4.79-10.27,0-15.6-4.68T0,42.25H13.52a9.17,9.17,0,0,0,2,6.31A7,7,0,0,0,21,50.83a6,6,0,0,0,6.52-6.17,7.73,7.73,0,0,0-2.46-5.52,19.29,19.29,0,0,0-7-4.2Q8.93,31.39,4.46,27.06A14.42,14.42,0,0,1,0,16.29q0-6.18,5.15-11T20.47.39Q30.39.39,35.73,5.33Z" />
            <path class="cls-1"
                d="M64.48,16.38V44.07c0,2.52.42,4.25,1.24,5.2a4.28,4.28,0,0,0,3.45,1.43q2.6,0,5.33-3.12a10.88,10.88,0,0,0,2.73-7.41V16.38H90.75V60.06H77.23V55.38A13.49,13.49,0,0,1,71.44,59a22.46,22.46,0,0,1-6.83,1.1A12.84,12.84,0,0,1,54.8,56Q51,51.88,51,44.2V16.38Z" />
            <path class="cls-1"
                d="M137,19.59a11.42,11.42,0,0,1,3.25,8.48V59.41H126.76V30.16a4.86,4.86,0,0,0-1-3.38,4.21,4.21,0,0,0-3.18-1,7.46,7.46,0,0,0-5.14,2.47,7.5,7.5,0,0,0-2.53,5.46V59.41H101.41v-43h13.52v4.94a13.78,13.78,0,0,1,5.39-3.64,20.11,20.11,0,0,1,7.35-1.3Q133.78,16.38,137,19.59Z" />
            <path class="cls-1"
                d="M204,16.38V49.27q0,9.1-5.65,13.13t-16.71,4V57.07A9.14,9.14,0,0,0,188,55.45q2.47-1.89,2.47-5.92V16.38ZM204,0V12.35H190.46V0Z" />
            <path class="cls-1"
                d="M228.17,16.38V44.07q0,3.78,1.23,5.2a4.28,4.28,0,0,0,3.45,1.43q2.6,0,5.33-3.12a10.88,10.88,0,0,0,2.73-7.41V16.38h13.52V60.06H240.91V55.38A13.49,13.49,0,0,1,235.12,59a22.45,22.45,0,0,1-6.82,1.1A12.86,12.86,0,0,1,218.48,56q-3.84-4.09-3.83-11.77V16.38Z" />
            <path class="cls-1"
                d="M278.61,1.17V21.45a14.44,14.44,0,0,1,5.59-4.09,17.37,17.37,0,0,1,7.15-1.63,12.22,12.22,0,0,1,9,3.45c2.29,2.29,3.44,5.44,3.44,9.42V59.41H290.31V30.5a6.44,6.44,0,0,0-1.1-4,3.94,3.94,0,0,0-3.32-1.45q-2.59,0-4.94,2.91a9.87,9.87,0,0,0-2.34,6.33V59.41H265.09V1.17Z" />
            <path class="cls-1"
                d="M325.15,16.38l7,21.71,8.32-21.71H354L335.16,56.29A15.21,15.21,0,0,1,327,64.22a29.76,29.76,0,0,1-11.31,2.22V57.07a12.48,12.48,0,0,0,6.11-1.3,10.85,10.85,0,0,0,4-4.16L311.89,16.38Z" />
            <path class="cls-1"
                d="M396.85,23.34q5.65,7.47,5,18.91H373.78a8,8,0,0,0,2,6,6.6,6.6,0,0,0,5,2.34,8.24,8.24,0,0,0,4.81-1.43,6.18,6.18,0,0,0,2.6-3.12h13.52a24.35,24.35,0,0,1-7.67,9.88q-5.21,4-13.26,4-9.49,0-15-5.85t-5.52-15.86q0-10,5.72-16.18t15.21-6.18Q391.2,15.86,396.85,23.34Zm-21.12,4.09a8,8,0,0,0-2,5.46h14.56a8.42,8.42,0,0,0-2-5.65,7,7,0,0,0-5.39-2A6.6,6.6,0,0,0,375.73,27.43Z" />
            <path class="cls-1"
                d="M444.11,22a22.32,22.32,0,0,1,5.59,15.47q0,9.63-5.2,16.06t-15.6,6.43q-10.14,0-15.47-6.17T408.1,37.31q0-9.75,5.72-15.66t15.08-5.92Q438.52,15.73,444.11,22Zm-20.6,6.37q-1.89,3.26-1.89,9.23,0,6.51,2.08,9.75t5.2,3.25q3.12,0,5.2-3.18c1.39-2.12,2.08-5.4,2.08-9.82q0-6.1-2-9.29a6,6,0,0,0-5.27-3.19A5.92,5.92,0,0,0,423.51,28.34Z" />
            <path class="cls-1"
                d="M493.9,19.59a11.38,11.38,0,0,1,3.25,8.48V59.41H483.63V30.16a4.86,4.86,0,0,0-1-3.38,4.22,4.22,0,0,0-3.19-1,7.46,7.46,0,0,0-5.13,2.47,7.51,7.51,0,0,0-2.54,5.46V59.41H458.28v-43H471.8v4.94a13.9,13.9,0,0,1,5.4-3.64,20.1,20.1,0,0,1,7.34-1.3Q490.66,16.38,493.9,19.59Z" />
        </g>
    </g>
</svg>